<?xml version="1.0" standalone="no"?>
<!DOCTYPE svg PUBLIC "-//W3C//DTD SVG 20010904//EN"
 "http://www.w3.org/TR/2001/REC-SVG-20010904/DTD/svg10.dtd">
<svg version="1.0" xmlns="http://www.w3.org/2000/svg"
 width="170.000000pt" height="170.000000pt" viewBox="0 0 170.000000 170.000000"
 preserveAspectRatio="xMidYMid meet">
<metadata>
Created by potrace 1.11, written by Peter Selinger 2001-2013
</metadata>
<g transform="translate(0.000000,170.000000) scale(0.100000,-0.100000)"
fill="#000000" stroke="none">
<path d="M379 1545 c-101 -51 -193 -186 -219 -320 -6 -33 -16 -68 -21 -77 -12
-23 -12 -263 0 -286 5 -9 15 -44 21 -77 27 -130 108 -248 199 -289 22 -11 41
-23 41 -28 0 -4 47 -8 105 -8 58 0 105 4 105 8 0 5 18 15 41 22 23 8 43 20 46
26 3 7 1 37 -4 66 -7 45 -12 54 -31 56 -13 2 -29 -1 -36 -7 -7 -6 -36 -15 -64
-22 -170 -36 -294 131 -295 401 -1 206 62 349 178 404 39 19 103 25 123 12 6
-4 53 -8 104 -9 51 -1 99 -6 106 -10 9 -6 12 -111 12 -468 l0 -460 58 3 57 3
3 463 2 463 88 -3 87 -3 3 -462 2 -463 199 0 c110 0 206 3 215 6 12 5 16 21
16 70 l0 64 -155 0 -155 0 0 175 0 175 135 0 135 0 0 65 0 64 -132 3 -133 3
-3 157 -3 157 143 3 143 3 0 60 0 60 -430 7 c-236 4 -477 9 -535 12 -96 4
-109 2 -151 -19z"/>
<path d="M430 265 c0 -43 4 -75 10 -75 6 0 10 32 10 75 0 43 -4 75 -10 75 -6
0 -10 -32 -10 -75z"/>
<path d="M1060 265 c0 -43 4 -75 10 -75 6 0 10 32 10 75 0 43 -4 75 -10 75 -6
0 -10 -32 -10 -75z"/>
<path d="M1400 265 c0 -43 4 -75 10 -75 6 0 10 8 10 17 0 15 2 14 14 -3 19
-25 30 -13 15 18 -8 19 -8 31 0 47 13 23 2 28 -17 9 -9 -9 -12 -4 -12 25 0 20
-4 37 -10 37 -6 0 -10 -32 -10 -75z"/>
<path d="M705 310 c-18 -30 -3 -120 21 -120 16 0 19 16 4 25 -14 9 -12 52 3
58 8 4 9 8 1 14 -6 4 -13 15 -16 23 -4 12 -6 12 -13 0z"/>
<path d="M202 278 c-15 -15 -15 -61 0 -76 14 -14 48 -16 48 -3 0 5 -9 11 -20
14 -12 3 -20 14 -20 27 0 13 8 24 20 27 11 3 20 9 20 14 0 13 -34 11 -48 -3z"/>
<path d="M274 277 c-3 -8 -4 -30 -2 -49 2 -28 7 -34 31 -36 15 -2 27 1 27 7 0
6 -9 11 -20 11 -11 0 -20 5 -20 10 0 6 9 10 21 10 31 0 23 54 -9 58 -13 2 -24
-3 -28 -11z m36 -17 c0 -5 -4 -10 -10 -10 -5 0 -10 5 -10 10 0 6 5 10 10 10 6
0 10 -4 10 -10z"/>
<path d="M357 240 c10 -36 11 -54 4 -69 -13 -24 -14 -31 -2 -31 11 0 37 64 46
113 5 25 3 37 -4 37 -6 0 -11 -9 -11 -20 0 -11 -4 -20 -10 -20 -5 0 -10 9 -10
20 0 11 -6 20 -14 20 -12 0 -12 -8 1 -50z"/>
<path d="M480 266 c-14 -38 3 -78 33 -74 19 3 22 9 22 48 0 39 -3 45 -22 48
-17 3 -26 -3 -33 -22z m40 -26 c0 -32 -14 -40 -24 -15 -6 18 2 45 15 45 5 0 9
-13 9 -30z"/>
<path d="M570 241 c0 -28 5 -51 10 -51 6 0 10 15 10 34 0 19 5 38 10 41 6 4
10 -10 10 -34 0 -23 5 -41 11 -41 6 0 9 19 7 48 -3 43 -5 47 -30 50 -27 3 -28
2 -28 -47z"/>
<path d="M760 240 c0 -27 5 -50 10 -50 6 0 10 15 10 34 0 19 5 38 10 41 17 10
11 25 -10 25 -17 0 -20 -7 -20 -50z"/>
<path d="M825 281 c-3 -6 1 -11 9 -11 21 0 20 -6 -4 -30 -24 -24 -16 -50 17
-50 23 0 24 3 21 47 -2 35 -7 49 -20 51 -9 2 -19 -2 -23 -7z"/>
<path d="M894 268 c4 -13 9 -35 12 -50 9 -39 31 -35 38 8 4 19 10 42 13 50 3
8 0 14 -6 14 -6 0 -14 -12 -18 -27 l-6 -28 -10 28 c-11 33 -32 37 -23 5z"/>
<path d="M984 276 c-3 -8 -4 -29 -2 -48 2 -25 8 -34 26 -36 12 -2 22 1 22 7 0
6 -7 11 -15 11 -8 0 -15 5 -15 10 0 6 9 10 20 10 13 0 20 7 20 18 0 35 -45 57
-56 28z m36 -16 c0 -5 -4 -10 -10 -10 -5 0 -10 5 -10 10 0 6 5 10 10 10 6 0
10 -4 10 -10z"/>
<path d="M1154 277 c-3 -8 -4 -30 -2 -49 2 -28 7 -34 31 -36 15 -2 27 1 27 7
0 6 -9 11 -20 11 -11 0 -20 5 -20 10 0 6 9 10 21 10 31 0 23 54 -9 58 -13 2
-24 -3 -28 -11z m36 -17 c0 -5 -4 -10 -10 -10 -5 0 -10 5 -10 10 0 6 5 10 10
10 6 0 10 -4 10 -10z"/>
<path d="M1235 243 c8 -27 15 -49 15 -50 0 -2 4 -3 10 -3 5 0 14 17 19 38 14
47 14 62 1 62 -5 0 -10 -9 -10 -20 0 -11 -4 -20 -10 -20 -5 0 -10 9 -10 20 0
11 -7 20 -15 20 -12 0 -12 -6 0 -47z"/>
<path d="M1310 265 c-12 -32 3 -75 28 -75 25 0 42 20 42 50 0 51 -53 70 -70
25z m45 -25 c0 -13 -5 -25 -11 -27 -14 -5 -25 22 -17 42 8 23 28 12 28 -15z"/>
<path d="M1484 277 c-3 -8 -4 -30 -2 -49 2 -28 7 -34 31 -36 15 -2 27 1 27 7
0 6 -9 11 -20 11 -11 0 -20 5 -20 10 0 6 9 10 21 10 31 0 23 54 -9 58 -13 2
-24 -3 -28 -11z m36 -17 c0 -5 -4 -10 -10 -10 -5 0 -10 5 -10 10 0 6 5 10 10
10 6 0 10 -4 10 -10z"/>
</g>
</svg>
